<svg viewBox="0 0 65 66.2954" fill="none" xmlns="http://www.w3.org/2000/svg">
<g id="Group 170">
<path id="Vector" fill-rule="evenodd" clip-rule="evenodd" d="M45.8308 15.7364H56.7749V28.8332L65 32.2546C64.5233 14.3572 50.1508 0 32.5 0C14.8492 0 0.476729 14.3572 0 32.2546L32.5 18.7238L45.8308 24.2734V15.7364Z" fill="#2BA8B0"/>
<g id="Group 337">
<path id="Vector_2" fill-rule="evenodd" clip-rule="evenodd" d="M33.2004 29.2167L62.9313 41.6001C63.2815 40.8005 63.5993 39.9831 63.8818 39.1478L33.2004 26.3661L2.51024 39.1478C2.79274 39.9831 3.11056 40.7975 3.46075 41.6001L33.2004 29.2167Z" fill="#FFFFFF"/>
<path id="Vector_3" fill-rule="evenodd" clip-rule="evenodd" d="M7.05673 66.1857H11.8446V65.1037H8.3339V63.3588H11.4944V62.2798H8.3339V60.85H11.7299V59.7591H7.05673V66.1857Z" fill="#FFFFFF"/>
<path id="Vector_4" fill-rule="evenodd" clip-rule="evenodd" d="M21.6647 66.1857H23.1891L24.5986 63.9652L25.9935 66.1857H27.5267L25.3667 62.8832L27.3354 59.7591H25.8582L24.6163 61.828L23.3568 59.7591H21.8707L23.8247 62.8327L21.6647 66.1857Z" fill="#FFFFFF"/>
<path id="Vector_5" fill-rule="evenodd" clip-rule="evenodd" d="M38.8387 60.8498H39.4479C39.8893 60.8498 40.1894 60.8677 40.3572 60.8915C40.5838 60.9331 40.7486 61.0371 40.8663 61.1798C40.9987 61.3344 41.0752 61.5276 41.0752 61.7505C41.0752 61.9467 41.0252 62.1161 40.934 62.2529C40.8339 62.4074 40.7015 62.5085 40.5337 62.5679C40.3572 62.6363 40.0246 62.669 39.5244 62.669H38.8416V60.8469L38.8387 60.8498ZM37.5615 66.1855H38.8387V63.7688H39.6656C40.2571 63.7688 40.6926 63.7361 40.984 63.6767C41.2165 63.6262 41.4342 63.5221 41.6432 63.3705C41.8698 63.2159 42.0434 63.0138 42.1758 62.7314C42.3082 62.4669 42.3847 62.1369 42.3847 61.7356C42.3847 61.2333 42.2582 60.8261 42.0257 60.4931C41.7756 60.1691 41.4754 59.9581 41.1164 59.863C40.8663 59.7946 40.366 59.7619 39.6068 59.7619H37.5645V66.1884L37.5615 66.1855Z" fill="#FFFFFF"/>
<path id="Vector_6" fill-rule="evenodd" clip-rule="evenodd" d="M53.8615 62.9752C53.8615 62.2261 54.0204 61.6821 54.3441 61.3165C54.6708 60.942 55.0857 60.7636 55.6125 60.7636C56.1392 60.7636 56.5541 60.942 56.8808 61.3076C57.1986 61.6732 57.3575 62.2261 57.3575 62.9573C57.3575 63.6886 57.181 64.2593 56.8573 64.6249C56.5306 64.9905 56.1157 65.1778 55.6154 65.1778C55.1151 65.1778 54.6884 64.9905 54.3647 64.6249C54.0322 64.2415 53.8644 63.6975 53.8644 62.9752H53.8615ZM52.552 63.0108C52.552 64.0334 52.8286 64.8419 53.3848 65.4275C53.9351 66.0071 54.6767 66.2954 55.6213 66.2954C56.5659 66.2954 57.281 65.9982 57.8401 65.4186C58.3904 64.83 58.6671 64.0215 58.6671 62.9841C58.6671 61.9467 58.3846 61.1114 57.8254 60.5318C57.2751 59.9432 56.5247 59.646 55.6066 59.646C55.0798 59.646 54.6296 59.7322 54.2382 59.9016C53.9468 60.0294 53.6791 60.2256 53.4289 60.4902C53.1876 60.7458 52.9875 61.0341 52.8374 61.367C52.6461 61.8099 52.5549 62.3539 52.5549 63.0108H52.552Z" fill="#FFFFFF"/>
<path id="Vector_7" fill-rule="evenodd" clip-rule="evenodd" d="M53.2612 39.9385C51.1101 39.13 48.9648 38.3215 46.8136 37.5129C47.1462 38.4077 47.3227 39.4094 47.3404 40.533C47.3669 42.7535 47.4228 44.9917 47.4404 47.2211C47.4669 49.4505 47.4581 51.6799 47.4581 53.9092C47.4581 55.0328 47.308 55.9692 46.9755 56.7361H49.9271C49.5945 56.0049 49.4268 55.1012 49.4268 54.0222C49.4268 51.9979 49.418 49.9707 49.4003 47.9464C49.3915 45.9221 49.3503 43.8949 49.3179 41.8706C50.1448 44.5518 50.9776 47.1557 51.7957 49.6675C52.5873 52.1109 53.3966 54.4681 54.1912 56.7391H59.9296C59.9296 54.7059 59.9472 52.6697 59.9296 50.6365C59.9207 48.6033 59.8795 46.5612 59.8383 44.5251C59.8207 43.6571 59.9796 43.0031 60.3151 42.584C59.3234 42.2095 58.3287 41.8439 57.3546 41.4693C57.696 42.2006 57.8637 43.0091 57.8726 43.8949C57.8991 45.5298 57.9491 47.1617 57.9638 48.7965C57.9815 50.4225 57.9726 52.0574 57.9726 53.6804C57.2134 51.5877 56.4365 49.4089 55.6537 47.1528C54.8533 44.8283 54.0617 42.4205 53.2671 39.9355L53.2612 39.9385ZM36.87 40.2357C36.8612 39.6829 36.87 39.231 36.9024 38.8922C36.9436 38.5444 37.0112 38.2977 37.0936 38.1253C37.176 37.9558 37.3026 37.8607 37.4527 37.8459C37.5939 37.8191 37.7793 37.8459 38.003 37.9142C38.5356 38.0837 39.0624 38.2471 39.6127 38.4166C39.8393 38.4939 40.0217 38.5771 40.1806 38.696C40.3395 38.806 40.4572 38.9695 40.5485 39.1805C40.6397 39.3916 40.7162 39.665 40.7574 40.0158C40.7898 40.3576 40.8163 40.7827 40.8251 41.2999C40.8575 42.8664 40.8839 44.4329 40.9016 45.9905C40.9193 47.557 40.9104 49.1146 40.9193 50.6811C40.9193 51.1745 40.9016 51.5818 40.8692 51.9058C40.8427 52.2209 40.778 52.4765 40.6927 52.6638C40.6014 52.851 40.4837 52.9789 40.3425 53.0472C40.1836 53.1156 39.9834 53.1394 39.751 53.1245C39.2095 53.0918 38.6827 53.0561 38.1501 53.0234C37.6822 52.9967 37.3732 52.8035 37.2172 52.4527C37.0495 52.1049 36.9671 51.3707 36.9671 50.265C36.9671 48.5974 36.9583 46.9209 36.9406 45.2533C36.923 43.5858 36.8994 41.9093 36.8729 40.2417L36.87 40.2357ZM35.328 33.1998C34.9454 33.0542 34.5599 33.0215 34.1921 33.0988C33.8242 33.185 33.474 33.4139 33.2239 33.8568C32.9149 34.4007 32.7413 35.1914 32.5824 36.1456C32.4235 37.0908 32.3499 38.2293 32.3646 39.5759C32.3911 41.294 32.4235 43.0061 32.4411 44.7153C32.4588 46.4245 32.4588 48.1456 32.4676 49.8548C32.4764 52.2803 32.7501 54.0252 33.2857 55.0982C33.8272 56.1951 34.5629 56.742 35.5222 56.742H42.3789C42.8115 56.742 43.2117 56.641 43.5795 56.4537C43.9474 56.2575 44.2711 55.9424 44.5389 55.5084C44.8067 55.0745 45.0215 54.4948 45.1804 53.7725C45.3393 53.0591 45.4129 52.1644 45.4129 51.0735C45.4129 49.6615 45.4129 48.2466 45.3952 46.8436C45.3864 45.4317 45.354 44.0168 45.3364 42.6048C45.3099 40.7232 45.0185 39.2192 44.5035 38.0955C43.9856 36.9541 43.2264 36.1723 42.2082 35.7889C39.9128 34.9298 37.6292 34.0708 35.325 33.2028L35.328 33.1998ZM22.524 42.0757C22.5151 41.5823 22.524 41.1751 22.5652 40.8511C22.5975 40.5181 22.6652 40.2566 22.7564 40.0515C22.8388 39.8553 22.9566 39.7037 23.0978 39.5907C23.2391 39.4896 23.4303 39.4034 23.6569 39.3262C24.1896 39.1656 24.7163 38.9932 25.249 38.8327C25.4756 38.7644 25.658 38.7465 25.8169 38.7644C25.9758 38.7822 26.0994 38.8565 26.1936 39.02C26.2848 39.1805 26.3525 39.4272 26.3937 39.7512C26.4349 40.0841 26.4526 40.5092 26.4614 41.0353C26.4879 42.6256 26.5114 44.21 26.5291 45.8003C26.5467 47.3906 26.5379 48.9838 26.5467 50.5741C26.5556 51.0765 26.5379 51.4926 26.5144 51.8255C26.482 52.1495 26.4231 52.42 26.3319 52.6162C26.2495 52.8213 26.1318 52.964 25.9817 53.0502C25.8228 53.1364 25.6315 53.1869 25.3991 53.1958C24.8576 53.2285 24.322 53.2642 23.7982 53.2969C23.3303 53.3237 23.0213 53.1869 22.8653 52.8956C22.7064 52.5984 22.624 51.9593 22.624 50.9813C22.6152 49.4921 22.6152 48.0118 22.5975 46.5226C22.5799 45.0423 22.5563 43.562 22.5299 42.0727L22.524 42.0757ZM21.0055 36.859C20.6141 37.0046 20.2374 37.2246 19.8784 37.5308C19.5106 37.8459 19.1869 38.2531 18.9102 38.7644C18.6336 39.2667 18.4188 39.8969 18.2511 40.6549C18.0921 41.4039 18.0186 42.2987 18.0333 43.3539C18.051 44.6886 18.0833 46.0262 18.101 47.3608C18.1098 48.6955 18.1098 50.0331 18.1098 51.3678C18.1098 53.2583 18.3923 54.6108 18.9279 55.452C19.4605 56.3021 20.2051 56.7361 21.1644 56.7361H28.0211C28.4537 56.7361 28.848 56.6261 29.2129 56.4121C29.5807 56.1921 29.9044 55.8235 30.1722 55.3152C30.44 54.795 30.6637 54.1054 30.8138 53.2375C30.9727 52.3784 31.0462 51.2964 31.0404 50.0034C31.0315 48.3269 31.0315 46.6504 31.0139 44.9739C30.9962 43.2974 30.9727 41.6209 30.9462 39.9444C30.9138 37.7062 30.6372 36.098 30.1193 35.1528C29.6102 34.2254 28.8421 33.9519 27.8416 34.3264C25.555 35.1676 23.2714 36.0118 21.0026 36.853L21.0055 36.859ZM8.75178 56.7391H14.2312C13.8987 56.0494 13.731 55.2082 13.731 54.1946C13.731 52.2298 13.731 50.2709 13.7133 48.315C13.6956 46.3502 13.6544 44.3824 13.6221 42.4265C14.3048 42.2065 15.014 41.9925 15.7144 41.7785C16.3912 41.5645 16.915 41.5912 17.3005 41.8468C17.1681 40.6816 17.0239 39.5223 16.9092 38.366C13.213 39.7364 9.52573 41.0978 5.83255 42.4592C5.70601 43.4282 5.61479 44.3913 5.51473 45.3455C5.88258 44.9531 6.39757 44.6469 7.0744 44.4359C7.76596 44.2219 8.45162 44.0197 9.152 43.7968C9.18437 45.5744 9.22851 47.346 9.24323 49.1235C9.26088 50.8951 9.25206 52.6638 9.25206 54.4413C9.25206 55.3866 9.09315 56.1505 8.75178 56.7391Z" fill="#FFFFFF"/>
</g>
</g>
</svg>
